<svg xmlns="http://www.w3.org/2000/svg" width="40.68" height="64.751" viewBox="0 0 40.68 64.751">
    <defs>
        <!-- <style>
            .cls-1{isolation:isolate}
        </style> -->
    </defs>
    <g id="female" class="cls-1">
        <g id="그룹_2205" class="cls-1" transform="translate(0)">
            <path id="패스_194" fill="#d5d5d5" d="M443.869 386.309c0 10.242-6.952 18.73-17.339 20.046v8.345h8.192c1.611 0 2.269 1.244 2.269 2.853 0 1.463-.658 2.78-2.269 2.78h-8.192v7.9c0 1.757-1.391 2.489-3 2.489s-3-.732-3-2.489v-7.9h-8.2c-1.608 0-2.34-1.317-2.34-2.78 0-1.61.732-2.853 2.34-2.853h8.2v-8.342c-10.462-1.315-17.34-9.8-17.34-20.046 0-11.268 8.194-20.34 20.34-20.34s20.339 9.069 20.339 20.337zm-34.021 0c0 7.682 5.342 14.048 13.681 14.048s13.682-6.366 13.682-14.048c0-7.756-5.341-14.121-13.682-14.121s-13.681 6.364-13.681 14.121z" transform="translate(-403.189 -365.969)"/>
        </g>
    </g>
</svg>
