<svg xmlns="http://www.w3.org/2000/svg" width="122.43" height="85.943" viewBox="0 0 122.43 85.943">
    <defs>

    </defs>
    <g id="heart" transform="translate(-210.252 -136.204)">
        <g id="그룹_1" transform="translate(210.252 136.204)">
            <path id="패스_1" fill="#e3e3e3" d="M331.026 150.754a21.96 21.96 0 0 0-11.014-12.254 36.955 36.955 0 0 0-16.693-3.446c-10.158.134-21.027 3.778-27.862 11.588a29.429 29.429 0 0 0-2.087 2.695c-8.09-8.028-19.367-12.147-30.448-13.97-6.151-1.011-12.253-.977-17.875 2a27.243 27.243 0 0 0-10.747 10.866c-12.347 22.171 5.875 47.43 23.314 60.562 9.465 7.127 20.792 11.619 32.7 11.9a58.163 58.163 0 0 0 34.131-10.372 66.786 66.786 0 0 0 22.037-26.3c4.688-9.908 8.518-22.486 4.544-33.269z" transform="translate(-210.252 -134.769)"/>
        </g>
        <g id="그룹_2" transform="translate(253.312 169.98)">
            <path id="패스_7" fill='#ffffff' d="M249.117 166.96a29.519 29.519 0 0 0-.338 7.328 3.013 3.013 0 0 0 .82 1.981 2.8 2.8 0 0 0 3.962 0 2.742 2.742 0 0 0 .82-1.981 26.612 26.612 0 0 1 .127-5.829l-.1.744c.035-.251.072-.5.113-.753a3.056 3.056 0 0 0-.282-2.159 2.8 2.8 0 0 0-3.833-1.005 2.721 2.721 0 0 0-1.287 1.674z" class="cls-2" transform="translate(-248.682 -164.913)"/>
        </g>
        <g id="그룹_3" transform="translate(287.352 169.98)">
            <path id="패스_8" fill='#ffffff' d="M279.5 166.96a29.516 29.516 0 0 0-.338 7.328 3.007 3.007 0 0 0 .82 1.981 2.8 2.8 0 0 0 3.962 0 2.746 2.746 0 0 0 .82-1.981 26.682 26.682 0 0 1 .126-5.829l-.1.744q.052-.376.112-.753a3.045 3.045 0 0 0-.282-2.159 2.8 2.8 0 0 0-3.832-1.005 2.721 2.721 0 0 0-1.287 1.674z" class="cls-2" transform="translate(-279.062 -164.913)"/>
        </g>
        <g id="그룹_4" transform="translate(258.554 188.372)">
            <path id="패스_9" fill='#ffffff' d="M254.013 183.971a30.14 30.14 0 0 0 30.216.964c1.584-.863.171-3.282-1.413-2.418a27.293 27.293 0 0 1-27.389-.965c-1.526-.969-2.933 1.454-1.414 2.419z" class="cls-2" transform="translate(-253.36 -181.328)"/>
        </g>
    </g>
</svg>
