<svg xmlns="http://www.w3.org/2000/svg" width="76.563" height="76.563" viewBox="0 0 76.563 76.563">
    <defs>
        <!-- <style>
            .cls-1{isolation:isolate}
        </style> -->
    </defs>
    <g id="male" class="cls-1" transform="translate(0 38.254) rotate(-45)">
        <g id="그룹_2206" class="cls-1" transform="translate(0 0)">
            <path id="패스_195" fill="#d5d5d5" d="M316.038 375.189v10.8c0 1.577-1.341 2.366-2.839 2.366-1.419 0-2.839-.789-2.839-2.366v-6.782l-8.912 9.305a22.8 22.8 0 0 1 4.26 13.406c0 12.146-8.834 21.924-21.845 21.924-13.09 0-21.924-9.778-21.924-21.924S270.773 380 283.863 380a22.039 22.039 0 0 1 13.169 4.179l9.147-8.832h-6.859c-1.656 0-2.366-1.342-2.366-2.76 0-1.658.71-2.919 2.366-2.919h11.28c4.1.001 5.438 1.343 5.438 5.521zm-47 26.734c0 8.282 5.837 15.142 14.827 15.142s14.746-6.861 14.746-15.142-5.757-15.223-14.748-15.223-14.827 6.943-14.827 15.223z" transform="translate(-261.939 -369.669)"/>
        </g>
    </g>
</svg>
